# xmcd
#
# Track frame offsets:
#	150
#	18674
#	38425
#	53404
#	71260
#	85772
#	102625
#	120147
#	134381
#	149785
#	167920
#	181763
#
# Disc length: 2658 seconds
#
# Revision: 3
# Processed by: cddbd v1.5.2PL0 Copyright (c) Steve Scherf et al.
# Submitted via: audiograbber 1.83.01
#
DISCID=990a600c
DTITLE=Various Artist - Karaokefun FUNCDG137 - Best Of Megahits Vol.29
DYEAR=2012
DGENRE=Karaoke
TTITLE0=Rihanna - S&M
TTITLE1=Lady GaGa - Burn This Way
TTITLE2=Natalia Kills - Mirrors
TTITLE3=Lady Antebellum - Need You Now
TTITLE4=Martin Solveigh ft. Dragonette - Hello
TTITLE5=Culcha Candela - Berlin City Girls
TTITLE6=Adele - Rolling In The Deep
TTITLE7=Andreas Gabalier - I Sing A Liad Für Di
TTITLE8=Lena - Taken By A Stranger
TTITLE9=Chris Brown - Yeah! Yeah! Yeah!
TTITLE10=Gabriella Cilmi - On A Mission
TTITLE11=Hurts - Stay
EXTD=YEAR: 2012
EXTT0=
EXTT1=
EXTT2=
EXTT3=
EXTT4=
EXTT5=
EXTT6=
EXTT7=
EXTT8=
EXTT9=
EXTT10=
EXTT11=
PLAYORDER=
